<svg width="3522" height="978" viewBox="0 0 3522 978" fill="none" xmlns="http://www.w3.org/2000/svg">
<path fill-rule="evenodd" clip-rule="evenodd" d="M437.296 24.2119C465.312 -6.07047 507.95 -7.1415 540.354 16.4995C552.379 26.4281 563.071 40.6957 565.561 56.4111C567.528 78.0665 565.18 97.708 551.623 115.458C543.292 125.447 534.68 132.752 522.937 138.613H519.892V184.281L541.638 184.12C546.266 184.097 550.893 184.075 555.521 184.058C562.818 184.031 570.115 183.999 577.412 183.936C663.885 183.208 745.142 203.273 810.234 263.307C813.449 266.257 816.739 269.086 820.069 271.905C826.172 277.256 831.371 283.06 836.529 289.316C837.189 290.101 837.849 290.886 838.529 291.695C850.408 305.864 860.771 320.495 870.019 336.506C870.905 338.03 870.906 338.031 871.809 339.585C885.053 362.657 903.188 396.056 901.988 423.275L905.954 423.061C928.614 422.369 948.094 428.559 964.782 444.206C979.967 460.311 984.891 477.213 984.807 498.89C984.822 501.722 984.822 501.722 984.838 504.611C984.861 509.754 984.865 514.896 984.856 520.039C984.851 524.351 984.86 528.663 984.869 532.975C984.891 543.159 984.888 553.343 984.871 563.527C984.853 573.99 984.874 584.452 984.915 594.914C984.949 603.935 984.96 612.957 984.951 621.978C984.946 627.349 984.948 632.719 984.975 638.09C985.003 644.089 984.981 650.087 984.955 656.086C984.97 657.835 984.985 659.585 985 661.387C984.809 682.516 977.539 699.199 963.07 714.406C945.51 731.103 925.42 734.743 901.988 735.337C901.821 736.263 901.654 737.189 901.482 738.142C892.917 783.497 870.183 826.194 841.096 861.684C840.445 862.49 839.795 863.296 839.125 864.125C822.577 884.56 804.448 902.427 783.249 918.008L778.361 921.611C714.908 966.889 645.123 978.158 568.904 977.99C561.869 977.978 554.834 977.989 547.799 977.996C535.991 978.004 524.183 977.994 512.375 977.972C498.836 977.947 485.297 977.954 471.759 977.979C460.02 978 448.281 978.003 436.542 977.991C429.582 977.984 422.621 977.983 415.66 977.999C326.776 978.168 245.764 960.099 178.935 897.933C175.747 894.946 175.746 894.946 171.288 892.13V889.085L168.624 887.961C161.527 883.982 156.695 876.967 151.498 870.818C150.782 869.975 150.066 869.131 149.329 868.263C116.973 829.832 93.8889 784.394 82.9946 735.337L79.7479 735.551C56.5292 736.4 37.1059 728.772 20.2001 713.074C4.40366 696.583 0.331499 677.968 0.349354 655.911C0.334018 653.172 0.333782 653.172 0.318135 650.378C0.294268 645.399 0.284405 640.42 0.282456 635.441C0.280283 632.319 0.274148 629.198 0.266104 626.077C0.237985 615.157 0.22505 604.238 0.227452 593.319C0.229278 583.189 0.19679 573.06 0.148661 562.931C0.108654 554.196 0.093206 545.46 0.0951432 536.724C0.095914 531.525 0.0875294 526.324 0.0550047 521.124C0.0249577 515.311 0.0337638 509.499 0.0520315 503.685C0.0263727 501.152 0.0261804 501.152 0 498.567C0.143676 480.459 4.97996 465.043 16.0138 450.675L18.6778 446.68C31.1084 433.559 48.9932 423.686 67.189 423.096C72.4614 423.086 77.724 423.142 82.9946 423.275L83.4406 418.226C91.0005 358.676 135.295 292.829 181.944 255.827L186.059 252.461C222.832 223.173 264.635 203.023 310.102 191.511C311.536 191.136 312.971 190.761 314.448 190.374C346.531 182.667 379.917 183.877 412.676 184.071C418.607 184.103 424.539 184.117 430.47 184.132C442.01 184.164 453.55 184.216 465.09 184.281C465.325 177.969 465.439 171.67 465.444 165.355C465.462 163.212 465.512 161.07 465.597 158.929C465.862 151.864 465.725 145.43 463.568 138.613C458.046 133.532 452.094 130.969 445.3 127.957C431.884 117.583 423.365 101.346 419.897 84.9534C417.953 61.6247 422.321 42.7117 437.296 24.2119ZM421.899 327.405C391.261 327.306 360.023 325.946 330.487 335.562C329.482 335.924 328.506 336.276 327.531 336.627C302.396 345.405 277.643 359.744 259.331 379.327L256.363 382.77C239.524 402.298 225.34 424.235 217.786 449.104C217.28 450.967 217.28 450.968 216.784 452.794C211.485 472.183 211.485 472.183 211.642 518.917C211.663 524.759 211.667 530.6 211.664 536.442C211.659 546.267 211.668 556.092 211.695 565.916C211.728 577.292 211.746 588.668 211.737 600.044C211.728 611.134 211.727 622.225 211.744 633.315C211.751 638.008 211.759 642.702 211.758 647.396C211.754 652.985 211.755 658.574 211.775 664.163C211.784 666.241 211.793 668.32 211.799 670.398C211.766 687.377 213.116 703.471 217.769 719.855C218.081 720.889 218.384 721.895 218.687 722.899C220.554 729.107 222.585 735.187 224.919 741.237C243.525 783.618 278.521 815.948 321.379 833.101C322.597 833.576 323.779 834.038 324.962 834.499C350.037 844.772 350.037 844.771 418.306 844.635C424.945 844.62 431.584 844.622 438.222 844.629C449.4 844.641 460.577 844.638 471.754 844.617C484.675 844.592 497.596 844.583 510.516 844.608C521.763 844.63 533.01 844.642 544.256 844.633C550.957 844.626 557.658 844.614 564.358 844.626C623.435 844.762 678.425 839.158 722.565 795.587C763.478 753.6 774.711 704.258 774.518 647.091C774.498 642.031 774.493 636.97 774.496 631.91C774.501 623.369 774.493 614.828 774.466 606.287C774.434 596.449 774.414 586.61 774.423 576.771C774.432 567.143 774.432 557.515 774.415 547.887C774.41 544.813 774.404 541.739 774.4 538.664C774.403 534.744 774.405 530.823 774.405 526.903C774.273 472.784 766.837 421.262 726.752 381.248C689.426 344.407 645.191 327.46 592.924 327.544C590.66 327.548 588.396 327.547 586.133 327.541C579.91 327.517 573.687 327.504 567.464 327.506C562.189 327.51 556.914 327.509 551.639 327.502C539.155 327.485 526.671 327.475 514.187 327.484C501.3 327.494 488.413 327.488 475.526 327.456C464.328 327.428 453.129 327.411 441.931 327.413C435.254 327.416 428.577 327.423 421.899 327.405Z" fill="black"/>
<path d="M674.852 409.487C676.539 414.378 676.016 417.323 674.481 422.214C674.06 423.592 673.638 424.97 673.204 426.39C672.509 428.596 672.509 428.596 671.8 430.848C668.381 442.036 665.146 453.215 662.376 464.58C660.138 473.713 657.658 482.69 654.77 491.647C653.32 496.324 652.03 501.016 650.781 505.749C647.454 518.246 643.941 530.689 640.425 543.135C638.51 549.913 636.602 556.693 634.693 563.473C634.315 564.812 633.938 566.151 633.549 567.531C622.591 606.43 622.591 606.43 612.286 645.503C610.366 652.976 608.31 660.368 605.988 667.729C603.387 675.975 601.115 684.278 598.901 692.633C595.773 704.355 592.379 716.006 589.047 727.672C588.312 730.25 587.577 732.829 586.843 735.407C585.066 741.64 583.288 747.873 581.508 754.106C575.956 749.598 571.317 745.421 566.878 739.776C562.14 733.893 557.243 728.278 552.069 722.777C547.112 717.496 542.354 712.118 537.798 706.489C532.278 699.684 526.407 693.311 520.392 686.942C514.789 680.976 509.6 674.756 504.455 668.396C500.612 663.824 496.574 659.478 492.473 655.135C486 648.279 479.9 641.227 473.967 633.902C469.307 628.24 464.391 622.812 459.443 617.398C455.091 619.33 452.078 621.498 448.715 624.836C447.754 625.782 446.794 626.728 445.805 627.703C444.768 628.74 443.73 629.777 442.66 630.846C441.555 631.939 440.45 633.032 439.311 634.159C435.654 637.78 432.007 641.412 428.361 645.044C425.818 647.567 423.274 650.09 420.73 652.612C415.394 657.907 410.062 663.205 404.734 668.508C397.924 675.286 391.103 682.054 384.28 688.82C379.023 694.034 373.769 699.251 368.517 704.47C366.005 706.965 363.492 709.46 360.978 711.954C357.452 715.453 353.931 718.958 350.411 722.463C349.382 723.483 348.353 724.503 347.292 725.554C341.64 731.194 336.233 736.967 331.018 743.007C327.375 747.133 323.458 750.974 319.518 754.818C318.353 755.963 318.353 755.963 317.165 757.132C315.29 758.975 313.41 760.813 311.53 762.65C309.465 758.556 311.087 755.967 312.458 751.809C312.838 750.69 313.219 749.572 313.612 748.419C314.2 746.649 314.2 746.649 314.801 744.844C316.114 740.902 317.443 736.966 318.772 733.029C319.699 730.254 320.626 727.479 321.552 724.704C324.012 717.334 326.485 709.97 328.962 702.606C331.406 695.329 333.841 688.05 336.276 680.77C336.751 679.351 337.226 677.932 337.715 676.469C338.671 673.61 339.627 670.752 340.584 667.893C342.024 663.588 343.466 659.283 344.908 654.979C350.722 637.618 356.465 620.236 362.134 602.829C369.374 580.599 376.784 558.428 384.261 536.275C388.266 524.412 392.253 512.543 396.241 500.674C398.303 494.539 400.365 488.404 402.427 482.269C403.249 479.824 404.071 477.379 404.893 474.935C411.588 455.017 418.283 435.1 424.978 415.183C425.926 415.183 426.874 415.183 427.85 415.183C429.794 417.301 431.629 419.518 433.415 421.769C438.555 428.149 443.813 434.383 449.211 440.549C455.657 447.942 461.809 455.51 467.845 463.234C473.289 470.162 479.001 476.831 484.795 483.472C491.333 490.97 497.668 498.621 503.961 506.322C508.252 511.558 512.56 516.779 516.885 521.986C517.565 522.808 518.245 523.63 518.945 524.476C521.092 527.066 523.25 529.645 525.412 532.222C526.091 533.044 526.77 533.866 527.47 534.713C529.144 536.696 530.906 538.605 532.682 540.499C537.888 540.499 541.368 535.382 544.978 531.955C545.923 531.069 546.867 530.183 547.84 529.27C549.869 527.365 551.897 525.458 553.921 523.548C557.118 520.541 560.329 517.551 563.546 514.566C565.674 512.589 567.802 510.613 569.93 508.636C570.913 507.724 571.896 506.811 572.909 505.871C578.841 500.342 584.644 494.709 590.356 488.956C592.973 486.408 595.679 484.025 598.471 481.668C603.339 477.524 607.88 473.111 612.383 468.585C616.709 464.237 621.05 459.982 625.756 456.035C632.373 450.448 638.376 444.269 644.484 438.149C649.727 432.916 655.068 427.922 660.749 423.154C665.694 418.851 670.257 414.152 674.852 409.487Z" fill="black"/>
<path d="M1302 742.15H1198V425.6H1296.8L1302 483.45H1303.95C1310.02 463.95 1320.85 449 1336.45 438.6C1352.05 427.767 1373.72 422.35 1401.45 422.35C1439.15 422.35 1466.88 432.967 1484.65 454.2C1502.85 475.433 1511.95 512.267 1511.95 564.7V742.15H1407.95L1407.3 584.85C1407.3 560.583 1403.62 543.25 1396.25 532.85C1388.88 522.45 1375.02 517.25 1354.65 517.25C1335.58 517.25 1322.15 522.017 1314.35 531.55C1306.55 540.65 1302.43 556.467 1302 579V742.15Z" fill="black"/>
<path d="M1681.45 307.95C1682.75 323.55 1683.4 336.55 1683.4 346.95C1683.4 353.017 1683.19 359.3 1682.75 365.8C1682.75 371.867 1682.32 378.8 1681.45 386.6C1672.35 388.333 1663.47 389.633 1654.8 390.5C1646.14 391.367 1637.47 391.8 1628.8 391.8C1620.57 391.8 1612.12 391.367 1603.45 390.5C1595.22 389.633 1586.77 388.333 1578.1 386.6C1577.24 379.233 1576.59 372.517 1576.15 366.45C1575.72 359.95 1575.5 353.667 1575.5 347.6C1575.5 341.967 1575.72 335.9 1576.15 329.4C1576.59 322.9 1577.24 315.75 1578.1 307.95C1586.77 305.783 1595.44 304.483 1604.1 304.05C1613.2 303.183 1622.09 302.75 1630.75 302.75C1638.99 302.75 1647.22 303.183 1655.45 304.05C1664.12 304.483 1672.79 305.783 1681.45 307.95ZM1681.45 742.15H1577.45V425.6H1681.45V742.15Z" fill="black"/>
<path d="M1727.42 510.1V425.6H1773.57V409.35C1773.57 366.45 1783.54 335.683 1803.47 317.05C1823.4 297.983 1853.09 288.45 1892.52 288.45C1906.39 288.45 1919.17 289.75 1930.87 292.35C1942.57 294.517 1952.75 297.117 1961.42 300.15V372.95L1959.47 374.25C1951.67 373.383 1943.87 372.733 1936.07 372.3C1928.27 371.433 1920.9 371 1913.97 371C1899.24 371 1888.84 373.817 1882.77 379.45C1877.14 384.65 1874.32 392.883 1874.32 404.15V425.6H1961.42V510.1H1874.32V742.15H1773.57V510.1H1727.42Z" fill="black"/>
<path d="M2020.17 647.25V510.75H1981.17V426.25H2029.92L2049.42 348.9H2124.17V426.25H2195.02V510.75H2124.17V624.5C2124.17 636.633 2125.69 645.083 2128.72 649.85C2131.76 654.183 2138.69 656.35 2149.52 656.35C2156.46 656.35 2163.82 656.133 2171.62 655.7C2179.42 654.833 2187.22 653.967 2195.02 653.1L2196.97 654.4V738.9C2176.17 744.967 2148.66 748 2114.42 748C2080.19 748 2055.92 740.2 2041.62 724.6C2027.32 709 2020.17 683.217 2020.17 647.25Z" fill="black"/>
<path d="M2291.92 861.75L2341.97 742.8L2216.52 426.9V425.6H2332.87C2345 459.833 2356.27 494.283 2366.67 528.95C2377.5 563.617 2386.17 599.15 2392.67 635.55H2393.97C2400.47 599.583 2408.7 564.267 2418.67 529.6C2429.07 494.933 2440.77 460.267 2453.77 425.6H2565.57V427.55L2398.52 863.05H2291.92V861.75Z" fill="black"/>
<path d="M2925.74 569.9C2925.74 628.4 2913.82 672.817 2889.99 703.15C2866.16 733.05 2825.64 748 2768.44 748C2736.37 748 2706.47 746.917 2678.74 744.75C2651.44 742.15 2627.39 739.117 2606.59 735.65L2604.64 734.35V304.7H2708.64V474.35H2711.24C2717.31 458.75 2727.27 446.183 2741.14 436.65C2755.44 427.117 2775.59 422.35 2801.59 422.35C2884.36 422.35 2925.74 471.533 2925.74 569.9ZM2708.64 580.95V657C2719.04 658.733 2731.17 659.6 2745.04 659.6C2765.41 659.6 2781.22 657.867 2792.49 654.4C2804.19 650.5 2812.42 643.133 2817.19 632.3C2821.96 621.467 2824.34 605.867 2824.34 585.5C2824.34 559.933 2820.66 541.083 2813.29 528.95C2805.92 516.817 2790.76 510.75 2767.79 510.75C2750.46 510.75 2736.16 516.167 2724.89 527C2714.06 537.4 2708.64 555.383 2708.64 580.95Z" fill="black"/>
<path d="M2958.31 586.15C2958.31 528.083 2970.66 486.267 2995.36 460.7C3020.06 435.133 3061.87 422.35 3120.81 422.35C3160.24 422.35 3191.87 427.983 3215.71 439.25C3239.54 450.517 3256.66 468.283 3267.06 492.55C3277.89 516.383 3283.31 547.583 3283.31 586.15C3283.31 624.283 3277.89 655.267 3267.06 679.1C3256.66 702.933 3239.54 720.483 3215.71 731.75C3191.87 742.583 3160.24 748 3120.81 748C3061.87 748 3020.06 735.433 2995.36 710.3C2970.66 684.733 2958.31 643.35 2958.31 586.15ZM3120.81 658.95C3145.94 658.95 3162.84 653.533 3171.51 642.7C3180.61 631.433 3185.16 611.933 3185.16 584.2C3185.16 557.767 3180.61 538.917 3171.51 527.65C3162.84 515.95 3145.94 510.1 3120.81 510.1C3096.54 510.1 3079.64 515.95 3070.11 527.65C3061.01 538.917 3056.46 557.767 3056.46 584.2C3056.46 611.933 3061.01 631.433 3070.11 642.7C3079.64 653.533 3096.54 658.95 3120.81 658.95Z" fill="black"/>
<path d="M3344.93 647.25V510.75H3305.93V426.25H3354.68L3374.18 348.9H3448.93V426.25H3519.78V510.75H3448.93V624.5C3448.93 636.633 3450.45 645.083 3453.48 649.85C3456.51 654.183 3463.45 656.35 3474.28 656.35C3481.21 656.35 3488.58 656.133 3496.38 655.7C3504.18 654.833 3511.98 653.967 3519.78 653.1L3521.73 654.4V738.9C3500.93 744.967 3473.41 748 3439.18 748C3404.95 748 3380.68 740.2 3366.38 724.6C3352.08 709 3344.93 683.217 3344.93 647.25Z" fill="black"/>
</svg>
